<?xml version="1.0" encoding="UTF-8" standalone="no"?>
<!DOCTYPE svg PUBLIC "-//W3C//DTD SVG 1.1//EN" "http://www.w3.org/Graphics/SVG/1.1/DTD/svg11.dtd">
<svg width="100%" height="100%" viewBox="0 0 160 46" version="1.1" xmlns="http://www.w3.org/2000/svg" xmlns:xlink="http://www.w3.org/1999/xlink" xml:space="preserve" xmlns:serif="http://www.serif.com/" style="fill-rule:evenodd;clip-rule:evenodd;stroke-linejoin:round;stroke-miterlimit:2;">
    <g transform="matrix(1,0,0,1,-2386,-48)">
        <g transform="matrix(0.989583,0,0,7.63241,2010,0)">
            <g transform="matrix(0.219668,0,0,0.0284812,283.973,-27.3565)">
                <g transform="matrix(1.95936,0,0,1.95936,-5452.94,-2071.4)">
                    <path d="M3116.12,1738.1C3116.12,1754.66 3102.68,1768.1 3086.12,1768.1L3038.12,1768.1C3021.57,1768.1 3008.12,1754.66 3008.12,1738.1L3008.12,1690.1C3008.12,1673.54 3021.57,1660.1 3038.12,1660.1L3086.12,1660.1C3102.68,1660.1 3116.12,1673.54 3116.12,1690.1L3116.12,1738.1ZM3038.13,1756.1C3028.19,1756.1 3020.13,1748.03 3020.13,1738.1C3020.13,1728.16 3028.19,1720.1 3038.13,1720.1L3086.12,1720.1C3092.87,1720.1 3099.11,1717.86 3104.12,1714.09L3104.12,1738.1C3104.12,1748.03 3096.06,1756.1 3086.12,1756.1C3086.12,1756.1 3048.06,1756.1 3038.13,1756.1ZM3038.12,1708.1C3031.37,1708.1 3025.14,1710.33 3020.12,1714.1L3020.12,1690.1C3020.12,1680.16 3028.19,1672.1 3038.12,1672.1L3086.12,1672.1C3096.06,1672.1 3104.12,1680.16 3104.12,1690.1C3104.12,1700.03 3096.06,1708.1 3086.12,1708.1L3038.12,1708.1Z" style="fill:rgb(237,238,240);"/>
                </g>
                <g transform="matrix(3.79167,0,0,3.79167,-11521.3,-5911.76)">
                    <path d="M3239.63,1898.04L3240.92,1898.04C3242.13,1898.04 3243.04,1897.8 3243.64,1897.32C3244.24,1896.84 3244.54,1896.14 3244.54,1895.23C3244.54,1894.31 3244.29,1893.63 3243.78,1893.19C3243.28,1892.75 3242.49,1892.53 3241.42,1892.53L3239.63,1892.53L3239.63,1898.04ZM3248.51,1895.09C3248.51,1897.09 3247.89,1898.62 3246.64,1899.67C3245.39,1900.73 3243.62,1901.26 3241.32,1901.26L3239.63,1901.26L3239.63,1906.5C3239.63,1907.25 3239.02,1907.86 3238.26,1907.86C3237.87,1907.86 3237.45,1907.86 3237.05,1907.86C3236.3,1907.86 3235.69,1907.25 3235.69,1906.5C3235.69,1903.07 3235.69,1894.1 3235.69,1890.66C3235.69,1890.3 3235.84,1889.96 3236.09,1889.7C3236.35,1889.45 3236.69,1889.3 3237.05,1889.3C3238.81,1889.3 3241.62,1889.3 3241.62,1889.3C3243.87,1889.3 3245.58,1889.79 3246.76,1890.76C3247.93,1891.73 3248.51,1893.17 3248.51,1895.09Z" style="fill:rgb(237,238,240);fill-rule:nonzero;"/>
                </g>
                <g transform="matrix(3.79167,0,0,3.79167,-11521.4,-5911.76)">
                    <path d="M3261.18,1907.86C3260.82,1907.86 3260.47,1907.72 3260.22,1907.46C3259.96,1907.21 3259.82,1906.86 3259.82,1906.5C3259.82,1903.07 3259.82,1894.1 3259.82,1890.66C3259.82,1889.91 3260.43,1889.3 3261.18,1889.3C3261.57,1889.3 3262,1889.3 3262.39,1889.3C3263.14,1889.3 3263.75,1889.91 3263.75,1890.66C3263.75,1894.41 3263.75,1904.61 3263.75,1904.61L3270.16,1904.61C3270.46,1904.61 3270.74,1904.73 3270.95,1904.94C3271.16,1905.15 3271.28,1905.44 3271.28,1905.73L3271.28,1906.74C3271.28,1907.36 3270.78,1907.86 3270.16,1907.86L3261.18,1907.86Z" style="fill:rgb(237,238,240);fill-rule:nonzero;"/>
                </g>
                <g transform="matrix(3.79167,0,0,3.79167,-11519,-5911.76)">
                    <path d="M3295.8,1889.3C3296.55,1889.3 3297.16,1889.91 3297.16,1890.66C3297.16,1893.81 3297.16,1901.31 3297.16,1901.31C3297.16,1902.68 3296.85,1903.88 3296.24,1904.92C3295.63,1905.95 3294.74,1906.74 3293.58,1907.29C3292.42,1907.84 3291.05,1908.12 3289.47,1908.12C3287.08,1908.12 3285.23,1907.51 3283.91,1906.28C3282.59,1905.06 3281.93,1903.39 3281.93,1901.26L3281.93,1890.66C3281.93,1889.91 3282.53,1889.3 3283.29,1889.3C3283.68,1889.3 3284.1,1889.3 3284.49,1889.3C3285.24,1889.3 3285.85,1889.91 3285.85,1890.66C3285.85,1893.68 3285.85,1900.66 3285.85,1900.66C3285.85,1902.1 3286.14,1903.14 3286.71,1903.81C3287.29,1904.48 3288.24,1904.82 3289.57,1904.82C3290.85,1904.82 3291.79,1904.48 3292.37,1903.81C3292.95,1903.13 3293.24,1902.08 3293.24,1900.64L3293.24,1890.66C3293.24,1890.3 3293.38,1889.96 3293.64,1889.7C3293.89,1889.45 3294.24,1889.3 3294.6,1889.3C3294.99,1889.3 3295.41,1889.3 3295.8,1889.3Z" style="fill:rgb(237,238,240);fill-rule:nonzero;"/>
                </g>
                <g transform="matrix(3.79167,0,0,3.79167,-11523.1,-5911.76)">
                    <path d="M3309.51,1890.66C3309.51,1890.3 3309.65,1889.96 3309.9,1889.7C3310.16,1889.45 3310.51,1889.3 3310.87,1889.3C3312.58,1889.3 3315.28,1889.3 3315.28,1889.3C3317.91,1889.3 3319.82,1889.68 3321.01,1890.43C3322.2,1891.17 3322.8,1892.37 3322.8,1894C3322.8,1895.11 3322.54,1896.02 3322.02,1896.73C3321.49,1897.44 3320.8,1897.87 3319.94,1898.01L3319.94,1898.14C3321.12,1898.4 3321.97,1898.89 3322.49,1899.61C3323.01,1900.33 3323.27,1901.29 3323.27,1902.48C3323.27,1904.17 3322.66,1905.49 3321.43,1906.44C3320.21,1907.39 3318.55,1907.86 3316.45,1907.86L3310.87,1907.86C3310.51,1907.86 3310.16,1907.72 3309.9,1907.46C3309.65,1907.21 3309.51,1906.86 3309.51,1906.5C3309.51,1903.07 3309.51,1894.1 3309.51,1890.66ZM3313.44,1896.65L3315.72,1896.65C3316.79,1896.65 3317.56,1896.49 3318.04,1896.16C3318.52,1895.83 3318.76,1895.28 3318.76,1894.52C3318.76,1893.81 3318.5,1893.3 3317.98,1892.99C3317.46,1892.68 3316.64,1892.53 3315.51,1892.53L3313.44,1892.53L3313.44,1896.65ZM3313.44,1899.78L3313.44,1904.61L3316.01,1904.61C3317.09,1904.61 3317.89,1904.41 3318.4,1903.99C3318.92,1903.58 3319.18,1902.94 3319.18,1902.09C3319.18,1900.55 3318.08,1899.78 3315.88,1899.78L3313.44,1899.78Z" style="fill:rgb(237,238,240);fill-rule:nonzero;"/>
                </g>
                <g transform="matrix(3.79167,0,0,3.79167,-11524.1,-5911.76)">
                    <path d="M3338.71,1897.54L3339.98,1897.54C3341.22,1897.54 3342.14,1897.33 3342.73,1896.92C3343.33,1896.51 3343.62,1895.85 3343.62,1894.96C3343.62,1894.08 3343.32,1893.46 3342.71,1893.09C3342.11,1892.71 3341.17,1892.53 3339.9,1892.53L3338.71,1892.53L3338.71,1897.54ZM3338.71,1900.74L3338.71,1906.5C3338.71,1907.25 3338.1,1907.86 3337.35,1907.86C3336.95,1907.86 3336.53,1907.86 3336.14,1907.86C3335.38,1907.86 3334.77,1907.25 3334.77,1906.5C3334.77,1903.07 3334.77,1894.1 3334.77,1890.66C3334.77,1890.3 3334.92,1889.96 3335.17,1889.7C3335.43,1889.45 3335.78,1889.3 3336.14,1889.3C3337.74,1889.3 3340.18,1889.3 3340.18,1889.3C3342.7,1889.3 3344.57,1889.76 3345.78,1890.68C3346.99,1891.6 3347.6,1892.99 3347.6,1894.86C3347.6,1895.95 3347.3,1896.93 3346.69,1897.78C3346.09,1898.63 3345.24,1899.29 3344.14,1899.78C3345.83,1902.3 3347.17,1904.29 3348.15,1905.73C3348.43,1906.15 3348.46,1906.69 3348.23,1907.14C3347.99,1907.58 3347.53,1907.86 3347.02,1907.86C3346.65,1907.86 3346.29,1907.86 3345.99,1907.86C3345.52,1907.86 3345.08,1907.62 3344.84,1907.22C3343.74,1905.47 3340.8,1900.74 3340.8,1900.74L3338.71,1900.74Z" style="fill:rgb(237,238,240);fill-rule:nonzero;"/>
                </g>
            </g>
        </g>
    </g>
</svg>
